# Blender v2.83.1 OBJ File: 'tiles.blend'
# www.blender.org
mtllib stone_wall_1.mtl
o Wall1_Lo.001_Cube.014
v -0.659274 2.041355 -0.386348
v 0.410350 1.277695 -1.166591
v -1.031262 1.962693 -0.102607
v -0.716387 2.830272 -0.084174
v -1.343029 1.460604 0.977477
v -1.052449 1.498846 1.238768
v -0.907900 0.546987 0.025274
v -0.445472 0.482106 0.917063
v -0.009112 1.405902 1.123498
v -0.272799 0.470834 0.665042
v 0.027435 0.883849 1.109133
v -1.102729 1.889252 0.988227
v -0.091319 0.509727 0.873297
v -1.280767 1.155837 0.334025
v 0.990626 0.708626 1.131940
v 1.069397 1.023477 0.611600
v 1.174722 0.973833 0.707392
v -0.700287 0.264216 0.501082
v 1.211555 1.748566 0.565539
v 0.805105 0.997348 0.079328
v 0.912285 0.458395 -0.352217
v 1.157798 1.273035 1.211449
v -1.130938 1.065759 1.121951
v -0.052891 1.437378 -1.122469
v 0.740300 0.955490 -1.242677
v 1.188378 0.944468 0.775962
v 0.608965 0.218736 0.604697
v 1.088249 1.342987 -1.119939
v 0.794709 1.522701 -0.640293
v 0.997325 1.553850 0.128155
v 1.019304 0.925029 0.201035
v -0.717011 0.406028 0.067349
v 0.173664 0.848384 -1.291968
v 1.140486 1.442757 0.272585
v 0.686876 0.235346 -0.790206
v 0.984957 0.538857 0.491980
v 1.296102 1.211710 -0.543264
v 0.573723 0.793407 -0.279744
v 1.093336 0.882185 -1.107683
v 0.691811 1.531349 -0.600354
v 0.649309 0.798194 -0.233709
v 0.262038 0.207704 0.641040
v 0.773830 0.531505 0.043277
v -0.601578 0.419331 -0.917744
v -0.370211 0.307088 -1.017757
v 0.239932 0.528611 -0.918316
v 0.094375 0.578116 -1.275825
v -0.836037 0.481664 -0.634563
v -0.679482 0.708334 -0.189364
v -0.672212 0.763631 -1.172946
v 0.485738 0.986402 -0.994409
v -1.381756 1.083948 0.802151
v -0.378191 1.643147 -0.942125
v -0.850458 1.554147 -0.504411
v -0.268772 0.266236 -0.820295
v -0.552540 1.114562 -1.344299
v 0.198690 3.670105 -0.578326
v 0.066258 3.323870 -0.945723
v 0.477033 2.774863 -0.903318
v -1.309862 1.695359 0.688727
v 0.360068 3.305452 -0.712554
v -0.906257 3.410073 -0.593744
v -0.739310 4.047941 -0.556271
v -0.227150 3.989111 -0.121063
v 0.059101 3.774994 -0.674107
v -0.984687 1.132396 -0.997895
v -0.461201 0.297511 -0.787698
v -0.611218 0.428976 -0.457541
v -0.914057 0.776176 -0.451444
v 1.189150 0.867615 0.776758
v 0.108542 1.082723 1.009857
v 0.327096 0.962722 1.218053
v 0.809489 1.071353 1.332853
v 0.613673 1.686151 1.208550
v 0.813733 1.136926 0.084684
v 1.267898 1.176374 0.978542
v 1.028489 1.916343 0.471465
v -0.401234 3.802731 0.130068
v 1.101743 2.415519 -0.586840
v -0.270258 2.680117 0.453725
v -0.115426 1.639066 0.985291
v -0.617947 1.744884 -0.745444
v -0.846378 1.565184 -0.224808
v -0.726147 2.819832 -0.803911
v -0.709051 3.580290 0.041664
v -0.060541 3.101799 -1.095825
v -0.182307 2.731848 0.549193
v 0.527488 2.191152 -0.970938
v -0.574826 2.797482 -0.167119
v 1.056389 1.742454 -0.388930
v 0.961590 3.223335 0.513951
v -0.635883 3.144729 0.855282
v -0.112422 3.142450 0.798905
v -0.932378 2.198672 0.589435
v -0.894313 2.890542 0.740602
v 0.621285 3.611221 0.717299
v -0.077674 3.963693 0.303077
v 0.145275 1.565356 -0.913114
v -0.685325 2.594481 -0.411384
v -0.082935 1.766448 -1.008147
v 0.189677 1.631278 -1.043118
v -0.816324 3.412951 0.701185
v -0.941299 3.135918 0.127882
v -0.600028 3.779319 0.035056
v 0.524039 3.772317 -0.161834
v -0.674440 3.742043 0.500132
v -0.243635 3.577606 0.580835
v -1.020527 1.953113 0.691323
v 0.006600 2.036109 -0.937215
v 0.717846 2.600402 -0.804810
v -0.862621 3.494819 0.272758
v 0.315188 1.462252 -0.882071
v 1.108319 1.911969 -1.206776
v -0.857890 2.100610 -0.386171
v 0.776407 1.639082 -1.136716
v 1.117234 3.281587 0.202551
v -0.383621 3.939596 -0.919603
v -0.002024 3.852028 0.312578
v -0.695615 3.710577 -0.974391
v 0.867446 2.675095 -0.929288
v 1.110573 1.793187 -0.177384
v 1.164037 2.448622 -0.783927
v -0.657610 1.652785 -0.426079
v -0.077048 3.656481 0.685979
v 1.203156 1.643753 -0.684324
v 1.174746 1.791905 -0.469084
v 0.827473 3.755229 0.039723
v 1.251597 2.642161 -0.217556
v 0.579072 0.834464 -0.199312
v 1.001430 3.398325 -0.363512
v 1.011539 3.406463 -0.073275
v 0.257773 4.094826 -0.286709
v 0.777633 1.560444 -0.506303
v -0.849768 3.761349 -0.137105
v -0.473354 4.122851 -0.650548
v 0.294941 2.918597 -0.809163
v 0.278200 3.614871 -0.806063
v 0.808903 2.498539 -1.117728
v 0.430943 3.783903 -0.634609
v 0.622504 3.809429 0.481417
v -0.934150 1.230482 -0.392494
v 0.838735 3.209907 -0.684933
v 0.618240 1.688960 -1.007768
v 0.126996 2.425975 -1.048608
v 0.449875 2.303391 -1.102736
v 0.172747 2.703658 -0.756535
v -0.416583 1.384476 1.255654
v -0.141596 2.801593 0.418078
v 0.272217 3.003224 0.814808
v 0.788956 2.141626 0.736446
v -0.677988 1.988430 0.925992
v 1.052282 3.104982 0.230339
v 1.175908 2.518515 0.256263
v -1.015921 1.616406 0.070054
v -1.124323 2.441101 0.167482
vt 0.822730 0.920692
vt 0.598818 0.871442
vt 0.615911 0.838796
vt 0.331038 0.863599
vt 0.474004 0.878275
vt 0.393001 0.918843
vt 0.577802 0.892060
vt 0.724834 0.455785
vt 0.773400 0.496250
vt 0.665702 0.513632
vt 0.897107 0.850155
vt 0.940347 0.797269
vt 0.927435 0.926862
vt 0.406850 0.737284
vt 0.294946 0.727298
vt 0.413862 0.719207
vt 0.525418 0.470231
vt 0.512764 0.501532
vt 0.404490 0.495162
vt 0.503079 0.784316
vt 0.494287 0.843358
vt 0.424850 0.837730
vt 0.436696 0.856737
vt 0.519001 0.863630
vt 0.599901 0.430261
vt 0.537752 0.751356
vt 0.647081 0.776326
vt 0.694811 0.699861
vt 0.819253 0.828280
vt 0.863502 0.904045
vt 0.870418 0.948073
vt 0.534896 0.624513
vt 0.708315 0.645371
vt 0.824557 0.968446
vt 0.973683 0.854493
vt 0.256088 0.933739
vt 0.308803 0.949276
vt 0.386101 0.971160
vt 0.449794 0.968901
vt 0.679865 0.981273
vt 0.668460 0.957441
vt 0.531931 0.089381
vt 0.603805 0.158602
vt 0.514287 0.146660
vt 0.492786 0.171627
vt 0.378195 0.069261
vt 0.595070 0.209076
vt 0.595089 0.209024
vt 0.598469 0.208045
vt 0.525305 0.194517
vt 0.617897 0.197811
vt 0.597614 0.201913
vt 0.598576 0.207063
vt 0.495952 0.274426
vt 0.413245 0.218098
vt 0.698097 0.247313
vt 0.446451 0.365500
vt 0.438650 0.355268
vt 0.437801 0.334148
vt 0.684162 0.055227
vt 0.720620 0.040846
vt 0.900756 0.073337
vt 0.329713 0.980708
vt 0.428136 0.046958
vt 0.771591 0.024893
vt 0.639812 0.346404
vt 0.831541 0.178983
vt 0.317906 0.308306
vt 0.317906 0.308306
vt 0.317906 0.308306
vt 0.049069 0.661453
vt 0.063402 0.732561
vt 0.011669 0.683344
vt 0.337710 0.409068
vt 0.290122 0.343709
vt 0.163010 0.641385
vt 0.153231 0.660569
vt 0.104640 0.612470
vt 0.119037 0.722732
vt 0.155280 0.716421
vt 0.139882 0.762474
vt 0.326214 0.692281
vt 0.507181 0.674162
vt 0.300878 0.713050
vt 0.295390 0.073106
vt 0.367319 0.209312
vt 0.288668 0.266162
vt 0.068368 0.126020
vt 0.163929 0.045733
vt 0.124634 0.169943
vt 0.100157 0.528731
vt 0.178421 0.507348
vt 0.264100 0.526760
vt 0.057507 0.804763
vt 0.142408 0.819424
vt 0.062347 0.864003
vt 0.340110 0.455783
vt 0.317108 0.470656
vt 0.883940 0.304829
vt 0.887248 0.228778
vt 0.944203 0.403967
vt 0.832880 0.589800
vt 0.771964 0.567118
vt 0.165354 0.784022
vt 0.196507 0.749783
vt 0.364804 0.464383
vt 0.045475 0.748178
vt 0.093649 0.288059
vt 0.029560 0.204068
vt 0.102410 0.211283
vt 0.189250 0.718654
vt 0.355886 0.428636
vt 0.506765 0.394085
vt 0.459286 0.445858
vt 0.209438 0.805887
vt 0.177896 0.196038
vt 0.285528 0.661472
vt 0.227140 0.672780
vt 0.151717 0.312731
vt 0.178691 0.259475
vt 0.317906 0.308306
vt 0.317906 0.308306
vt 0.317906 0.308306
vt 0.339466 0.809923
vt 0.096434 0.687159
vt 0.051329 0.458219
vt 0.212279 0.444889
vt 0.461287 0.292554
vt 0.157747 0.369815
vt 0.205650 0.248065
vt 0.047942 0.330752
vt 0.107976 0.981293
vt 0.043328 0.901937
vt 0.931356 0.119038
vt 0.980210 0.696201
vt 0.902170 0.542306
vt 0.566537 0.050013
vt 0.733947 0.413486
vt 0.503857 0.716295
vt 0.185038 0.698950
vt 0.170269 0.668786
vt 0.193608 0.566316
vt 0.297446 0.547043
vt 0.243945 0.597073
vt 0.193645 0.650369
vt 0.295171 0.505113
vt 0.814233 0.701412
vt 0.425266 0.571727
vt 0.495399 0.587562
vt 0.569494 0.720202
vt 0.428733 0.764072
vt 0.336145 0.772159
vt 0.258130 0.747726
vt 0.545875 0.554089
vt 0.518757 0.544581
vt 0.575799 0.528854
vt 0.944757 0.711931
vt 0.612785 0.582222
vt 0.379722 0.513417
vt 0.654135 0.308343
vt 0.654135 0.314356
vt 0.647448 0.310709
vt 0.355511 0.548447
vt 0.317906 0.308306
vt 0.317906 0.308306
vt 0.317906 0.308306
vt 0.517322 0.067478
vt 0.058425 0.102087
vt 0.107320 0.050000
vt 0.025705 0.616652
vt 0.018585 0.526193
vt 0.050791 0.588780
vt 0.359673 0.025524
vn -0.6471 -0.6033 -0.4662
vn -0.9293 -0.3273 0.1712
vn -0.9359 -0.0995 -0.3377
vn -0.1997 0.3955 0.8965
vn -0.3110 0.1724 0.9346
vn 0.1173 0.1369 0.9836
vn -0.4692 -0.4092 0.7825
vn -0.1350 -0.2680 -0.9539
vn -0.0083 -0.4769 -0.8789
vn -0.0716 0.2805 -0.9572
vn -0.7221 -0.6914 0.0229
vn -0.6043 -0.7047 -0.3717
vn -0.7615 -0.6463 0.0494
vn -0.4259 -0.0488 -0.9034
vn -0.3312 0.3742 -0.8661
vn -0.7555 0.0492 -0.6533
vn -0.0450 0.1122 -0.9926
vn -0.3644 0.0970 -0.9261
vn 0.3465 0.2497 -0.9042
vn -0.8881 0.2417 -0.3908
vn -0.8753 0.4661 -0.1288
vn -0.7072 0.7031 0.0739
vn -0.4605 0.7330 0.5006
vn -0.8890 0.1399 0.4359
vn 0.6771 0.2010 -0.7078
vn -0.8322 0.3703 -0.4125
vn -0.9889 0.0623 -0.1350
vn -0.8812 0.1341 -0.4532
vn -0.9013 -0.2584 0.3475
vn -0.8421 -0.4885 -0.2283
vn -0.6890 -0.6532 -0.3140
vn -0.3071 0.3125 -0.8989
vn -0.2942 0.1943 -0.9358
vn -0.5194 -0.7922 0.3204
vn -0.5360 -0.8365 -0.1133
vn 0.0470 0.4141 0.9090
vn -0.0115 0.2159 0.9763
vn -0.1064 -0.0422 0.9934
vn -0.0469 -0.2367 0.9704
vn -0.0040 -0.7391 0.6736
vn 0.0700 -0.7559 0.6509
vn -0.2742 -0.2479 0.9292
vn 0.4712 -0.6011 0.6454
vn 0.0842 -0.1439 0.9860
vn 0.6654 0.1508 0.7311
vn 0.0143 0.5060 0.8624
vn 0.3385 -0.6549 0.6756
vn 0.4341 0.4772 0.7641
vn 0.7238 -0.6167 -0.3094
vn 0.9793 -0.0816 0.1850
vn 0.9515 -0.3001 -0.0679
vn 0.9005 -0.0929 -0.4248
vn 0.4606 -0.7514 -0.4724
vn 0.9959 0.0887 -0.0186
vn 0.9072 0.4120 -0.0853
vn 0.9445 -0.3249 -0.0472
vn 0.8758 0.3078 0.3717
vn 0.6106 0.7761 0.1575
vn 0.9934 0.0782 0.0832
vn -0.4425 -0.5355 0.7193
vn -0.0833 -0.6847 0.7240
vn 0.9931 -0.1104 -0.0388
vn 0.7867 -0.6017 -0.1378
vn 0.3841 -0.5121 -0.7682
vn 0.3749 -0.5453 -0.7497
vn 0.3321 -0.6038 -0.7246
vn 0.2815 0.9522 -0.1181
vn -0.1008 0.6004 0.7933
vn 0.5407 0.8392 -0.0579
vn 0.9590 0.2652 -0.0997
vn 0.9871 0.0941 -0.1296
vn 0.1383 0.6403 -0.7555
vn 0.0033 0.9800 -0.1989
vn 0.3184 0.6908 -0.6491
vn -0.2604 0.8982 0.3541
vn -0.4610 0.8305 0.3127
vn -0.3503 0.8286 0.4366
vn -0.9105 -0.2332 0.3414
vn -0.8261 0.2937 -0.4809
vn -0.9767 0.0159 -0.2140
vn 0.5082 0.3679 0.7787
vn 0.9491 0.3059 0.0753
vn 0.9106 0.0512 0.4100
vn -0.3235 0.5900 0.7397
vn 0.2323 0.1031 0.9671
vn 0.3862 0.4198 0.8213
vn 0.1908 0.5040 -0.8423
vn 0.3930 -0.0439 -0.9185
vn 0.1017 0.1613 -0.9816
vn -0.2425 0.6605 0.7106
vn -0.1782 0.2606 0.9488
vn 0.0372 0.3476 0.9369
vn 0.0941 0.9667 -0.2380
vn 0.1271 0.6076 -0.7840
vn 0.6912 -0.7041 0.1628
vn 0.8169 -0.5749 0.0461
vn 0.4658 -0.6408 -0.6102
vn 0.3404 -0.5424 -0.7680
vn 0.4055 -0.0430 -0.9131
vn -0.6252 0.4304 0.6510
vn -0.9181 0.3547 -0.1766
vn -0.1199 0.5308 -0.8389
vn 0.0286 0.7727 0.6341
vn 0.5804 0.7866 -0.2108
vn 0.3677 0.8636 0.3450
vn -0.9901 0.1397 0.0084
vn 0.8531 0.5161 -0.0760
vn 0.9744 0.0739 -0.2123
vn 0.5615 -0.1391 -0.8156
vn -0.7991 0.1125 0.5906
vn 0.7305 -0.1998 0.6530
vn -0.8876 -0.1641 -0.4304
vn -0.9927 -0.0413 -0.1134
vn 0.8993 0.4033 -0.1693
vn 0.9984 0.0505 0.0231
vn -0.0521 0.2083 -0.9767
vn -0.1008 0.2015 -0.9743
vn -0.0892 0.2231 -0.9707
vn -0.9173 0.0608 0.3934
vn -0.2194 0.9676 0.1247
vn 0.3790 0.6865 -0.6206
vn 0.5343 0.2431 -0.8095
vn 0.7874 0.5544 0.2696
vn 0.8116 0.5153 -0.2751
vn 0.9371 -0.0447 0.3462
vn 0.4739 -0.8137 0.3365
vn 0.1226 -0.9187 -0.3755
vn 0.3430 -0.5395 -0.7689
vn 0.7077 -0.3447 -0.6167
vn -0.8335 0.4977 -0.2398
vn -0.8434 0.3278 0.4257
vn -0.6192 0.7836 -0.0502
vn 0.3482 0.2667 -0.8986
vn -0.1072 0.2627 -0.9589
vn 0.3394 0.0478 -0.9394
vn -0.5578 0.2761 -0.7827
vn 0.4188 0.6402 -0.6439
vn -0.5377 -0.4034 -0.7403
vn 0.1007 -0.0367 -0.9942
vn 0.1270 -0.1458 -0.9811
vn -0.7987 0.6003 -0.0405
vn -0.9360 -0.1257 -0.3286
vn -0.9957 0.0299 -0.0878
vn -0.7914 0.3710 -0.4858
vn -0.0772 -0.0195 -0.9968
vn -0.3788 -0.4210 -0.8242
vn -0.0796 0.2663 -0.9606
vn -0.1677 -0.8287 -0.5339
vn 0.1331 0.6000 -0.7888
vn 0.4243 0.1512 -0.8928
vn -0.0114 0.3635 0.9315
vn -0.0095 0.4061 0.9138
vn -0.0103 0.3939 0.9191
vn -0.6190 0.2961 -0.7274
vn 0.2243 0.4612 -0.8584
g Wall1_Lo.001_Cube.014_None
usemtl None
s 1
f 7/1/1 52/2/2 14/3/3
f 151/4/4 6/5/5 147/6/6
f 6/5/5 23/7/7 147/6/6
f 25/8/8 51/9/9 2/10/10
f 48/11/11 44/12/12 68/13/13
f 114/14/14 4/15/15 1/16/16
f 115/17/17 143/18/18 88/19/19
f 154/20/20 60/21/21 108/22/22
f 6/5/5 12/23/23 5/24/24
f 5/24/24 52/2/2 23/7/7
f 5/24/24 12/23/23 60/21/21
f 5/24/24 60/21/21 52/2/2
f 28/25/25 25/8/8 115/17/17
f 154/20/20 83/26/26 141/27/27
f 141/27/27 66/28/28 69/29/29
f 14/3/3 60/21/21 141/27/27
f 60/21/21 154/20/20 141/27/27
f 7/1/1 49/30/30 32/31/31
f 66/28/28 53/32/32 56/33/33
f 18/34/34 68/13/13 67/35/35
f 81/36/36 147/6/6 9/37/37
f 12/23/23 151/4/4 108/22/22
f 115/17/17 25/8/8 2/10/10
f 71/38/38 9/37/37 11/39/39
f 10/40/40 8/41/41 18/34/34
f 60/21/21 12/23/23 108/22/22
f 72/42/42 15/43/43 73/44/44
f 11/39/39 9/37/37 147/6/6
f 73/44/44 22/45/45 74/46/46
f 75/47/47 20/48/48 17/49/49
f 76/50/50 15/43/43 70/51/51
f 7/1/1 18/34/34 52/2/2
f 17/49/49 26/52/52 16/53/53
f 34/54/54 19/55/55 31/56/56
f 75/47/47 17/49/49 16/53/53
f 14/3/3 141/27/27 7/1/1
f 126/57/57 90/58/58 121/59/59
f 18/34/34 7/1/1 32/31/31
f 17/49/49 70/51/51 31/56/56
f 13/60/60 10/61/40 42/62/61
f 16/53/53 26/52/52 70/51/51
f 71/38/38 72/63/42 9/37/37
f 72/42/42 73/44/44 9/64/37
f 42/62/61 10/61/40 18/65/34
f 73/44/44 15/43/43 22/45/45
f 37/66/62 34/54/54 31/56/56
f 31/56/56 70/51/51 36/67/63
f 18/34/34 8/41/41 23/7/7
f 22/45/45 15/43/43 76/50/50
f 41/68/64 38/69/65 129/70/66
f 132/71/67 97/72/68 105/73/69
f 79/74/70 128/75/71 90/58/58
f 117/76/72 135/77/73 65/78/74
f 78/79/75 104/80/76 106/81/77
f 99/82/78 82/83/79 89/84/80
f 150/85/81 77/86/82 153/87/83
f 124/88/84 149/89/85 96/90/86
f 137/91/87 61/92/88 136/93/89
f 107/94/90 92/95/91 93/96/92
f 79/74/70 120/97/93 110/98/94
f 21/99/95 43/100/96 35/101/97
f 47/102/98 33/103/99 51/9/9
f 102/104/100 106/81/77 111/105/101
f 88/19/19 138/106/102 115/17/17
f 97/72/68 78/79/75 118/107/103
f 127/108/104 118/109/103 140/110/105
f 89/84/80 111/105/101 85/111/106
f 122/112/107 125/113/108 113/114/109
f 102/104/100 95/115/110 92/95/91
f 91/116/111 96/90/86 149/89/85
f 104/80/76 111/105/101 106/81/77
f 107/94/90 102/104/100 92/95/91
f 19/55/55 22/45/45 76/50/50
f 84/117/112 99/82/78 62/118/113
f 22/45/45 150/85/81 74/46/46
f 42/62/61 15/43/43 13/60/60
f 131/119/114 127/108/104 116/120/115
f 148/121/116 87/122/117 80/123/118
f 138/106/102 120/97/93 113/114/109
f 96/90/86 140/110/105 124/88/84
f 94/124/119 154/20/20 108/22/22
f 64/125/120 78/79/75 97/72/68
f 126/57/57 125/113/108 122/112/107
f 139/126/121 142/127/122 137/91/87
f 142/127/122 128/75/71 79/74/70
f 30/128/123 77/86/82 34/54/54
f 61/92/88 142/127/122 110/98/94
f 138/106/102 113/114/109 115/17/17
f 130/129/124 142/127/122 139/126/121
f 107/94/90 106/81/77 102/104/100
f 152/130/125 130/129/124 131/119/114
f 95/115/110 102/104/100 111/105/101
f 11/39/39 23/7/7 8/41/41
f 105/131/69 118/109/103 127/108/104
f 70/51/51 26/52/52 76/50/50
f 151/4/4 12/23/23 6/5/5
f 52/2/2 60/21/21 14/3/3
f 128/75/71 142/127/122 130/129/124
f 8/41/41 10/40/40 11/39/39
f 107/94/90 78/79/75 106/81/77
f 126/57/57 79/74/70 90/58/58
f 152/130/125 149/89/85 150/85/81
f 139/126/121 131/119/114 130/129/124
f 22/45/45 19/55/55 150/85/81
f 79/74/70 122/112/107 120/97/93
f 72/42/42 13/60/60 15/43/43
f 81/36/36 150/132/81 149/133/85
f 27/134/126 43/100/96 36/67/63
f 30/128/123 121/59/59 77/86/82
f 128/75/71 153/87/83 121/59/59
f 55/135/127 46/136/128 35/101/97
f 20/48/48 16/53/53 70/51/51
f 121/59/59 153/87/83 77/86/82
f 132/71/67 64/125/120 97/72/68
f 128/75/71 130/129/124 152/130/125
f 128/75/71 152/130/125 153/87/83
f 152/130/125 131/119/114 116/120/115
f 43/100/96 31/56/56 36/67/63
f 122/112/107 113/114/109 120/97/93
f 143/18/18 115/17/17 2/10/10
f 13/60/60 72/42/42 11/137/39
f 46/136/128 47/102/98 51/9/9
f 115/17/17 113/114/109 125/113/108
f 121/59/59 90/58/58 128/75/71
f 37/66/62 39/138/129 125/113/108
f 76/50/50 17/49/49 19/55/55
f 77/86/82 19/55/55 34/54/54
f 1/16/16 82/83/79 123/139/130
f 49/30/30 141/27/27 69/29/29
f 51/9/9 33/103/99 2/10/10
f 134/140/131 63/141/132 62/118/113
f 104/80/76 135/77/73 63/141/132
f 58/142/133 65/78/74 137/91/87
f 146/143/134 58/142/133 136/93/89
f 58/142/133 146/143/134 86/144/135
f 62/118/113 99/82/78 85/111/106
f 135/77/73 104/80/76 78/79/75
f 6/5/5 5/24/24 23/7/7
f 134/140/131 85/111/106 104/80/76
f 78/79/75 64/125/120 135/77/73
f 119/145/136 86/144/135 53/32/32
f 99/82/78 84/117/112 82/83/79
f 84/117/112 62/118/113 119/145/136
f 86/144/135 119/145/136 117/76/72
f 135/77/73 64/125/120 65/78/74
f 53/32/32 82/83/79 84/117/112
f 117/76/72 119/145/136 135/77/73
f 63/141/132 135/77/73 119/145/136
f 86/144/135 65/78/74 58/142/133
f 59/146/137 136/93/89 110/98/94
f 53/32/32 84/117/112 119/145/136
f 136/93/89 58/142/133 137/91/87
f 48/11/11 50/147/138 44/12/12
f 86/144/135 109/148/139 100/149/140
f 141/27/27 54/150/141 66/28/28
f 3/151/142 155/152/143 103/153/144
f 103/153/144 114/14/14 3/151/142
f 98/154/145 101/155/146 112/156/147
f 17/49/49 31/56/56 19/55/55
f 56/33/33 47/102/98 50/147/138
f 25/8/8 28/25/25 39/138/129
f 46/136/128 55/135/127 47/102/98
f 21/99/95 37/66/62 31/56/56
f 7/1/1 141/27/27 49/30/30
f 45/157/148 44/12/12 50/147/138
f 52/2/2 18/34/34 23/7/7
f 82/83/79 53/32/32 66/28/28
f 82/83/79 66/28/28 54/150/141
f 56/33/33 24/158/149 33/103/99
f 24/158/149 56/33/33 53/32/32
f 35/101/97 39/138/129 21/99/95
f 123/139/130 82/83/79 54/150/141
f 33/103/99 24/158/149 2/10/10
f 86/144/135 146/143/134 109/148/139
f 59/146/137 110/98/94 88/19/19
f 50/147/138 47/102/98 45/157/148
f 123/139/130 83/26/26 1/16/16
f 69/29/29 48/11/11 49/30/30
f 98/154/145 53/32/32 100/149/140
f 25/8/8 35/101/97 51/9/9
f 30/128/123 34/54/54 121/59/59
f 68/13/13 44/12/12 67/35/35
f 54/150/141 141/27/27 83/26/26
f 48/11/11 69/29/29 66/28/28
f 67/35/35 45/157/148 55/135/127
f 68/13/13 32/31/31 49/30/30
f 48/11/11 68/13/13 49/30/30
f 32/31/31 68/13/13 18/34/34
f 66/28/28 56/33/33 50/147/138
f 101/155/146 143/18/18 112/156/147
f 44/12/12 45/157/148 67/35/35
f 55/135/127 45/157/148 47/102/98
f 39/138/129 28/25/25 125/113/108
f 15/43/43 36/67/63 70/51/51
f 143/18/18 101/155/146 145/159/150
f 56/33/33 33/103/99 47/102/98
f 66/28/28 50/147/138 48/11/11
f 24/158/149 53/32/32 98/154/145
f 70/51/51 17/49/49 20/48/48
f 121/59/59 34/54/54 37/66/62
f 2/10/10 24/158/149 112/156/147
f 43/100/96 21/99/95 31/56/56
f 129/70/66 38/69/65 41/68/64
f 37/66/62 21/99/95 39/138/129
f 40/160/151 29/161/152 133/162/153
f 35/101/97 46/136/128 51/9/9
f 15/43/43 27/134/126 36/67/63
f 144/163/154 146/143/134 136/93/89
f 94/124/119 108/22/22 151/4/4
f 29/164/152 40/165/151 133/166/153
f 35/101/97 25/8/8 39/138/129
f 28/25/25 115/17/17 125/113/108
f 121/59/59 37/66/62 126/57/57
f 126/57/57 37/66/62 125/113/108
f 27/134/126 35/101/97 43/100/96
f 152/130/125 91/116/111 149/89/85
f 11/39/39 147/6/6 23/7/7
f 11/137/39 10/61/40 13/60/60
f 9/64/37 73/44/44 74/46/46
f 15/43/43 42/62/61 27/134/126
f 11/137/39 72/42/42 71/167/38
f 16/53/53 20/48/48 75/47/47
f 17/49/49 76/50/50 26/52/52
f 54/150/141 83/26/26 123/139/130
f 154/20/20 1/16/16 83/26/26
f 94/124/119 155/152/143 3/151/142
f 134/140/131 104/80/76 63/141/132
f 117/76/72 65/78/74 86/144/135
f 119/145/136 62/118/113 63/141/132
f 127/108/104 131/119/114 105/131/69
f 138/106/102 88/19/19 110/98/94
f 118/107/103 78/79/75 107/94/90
f 124/88/84 140/110/105 118/109/103
f 116/120/115 127/108/104 140/110/105
f 120/97/93 138/106/102 110/98/94
f 93/96/92 92/95/91 149/133/85
f 89/84/80 1/16/16 4/15/15
f 107/168/90 93/169/92 124/88/84
f 132/71/67 105/73/69 139/170/121
f 64/125/120 132/71/67 65/78/74
f 96/90/86 91/116/111 116/120/115
f 105/73/69 97/72/68 118/107/103
f 116/120/115 91/116/111 152/130/125
f 144/163/154 136/93/89 59/146/137
f 149/89/85 124/88/84 93/169/92
f 82/83/79 1/16/16 89/84/80
f 124/88/84 118/109/103 107/168/90
f 139/170/121 65/78/74 132/71/67
f 137/91/87 142/127/122 61/92/88
f 57/171/155 139/126/121 137/91/87
f 65/78/74 139/170/121 57/172/155
f 104/80/76 85/111/106 111/105/101
f 65/78/74 57/172/155 137/91/87
f 142/127/122 79/74/70 110/98/94
f 146/143/134 144/163/154 109/148/139
f 126/57/57 122/112/107 79/74/70
f 140/110/105 96/90/86 116/120/115
f 105/131/69 131/119/114 139/126/121
f 134/140/131 62/118/113 85/111/106
f 109/148/139 101/155/146 98/154/145
f 94/124/119 151/4/4 95/115/110
f 112/156/147 24/158/149 98/154/145
f 88/19/19 143/18/18 145/159/150
f 144/163/154 101/155/146 109/148/139
f 61/92/88 110/98/94 136/93/89
f 100/149/140 109/148/139 98/154/145
f 145/159/150 144/163/154 59/146/137
f 144/163/154 145/159/150 101/155/146
f 59/146/137 88/19/19 145/159/150
f 2/10/10 112/156/147 143/18/18
f 100/149/140 53/32/32 86/144/135
f 9/64/37 74/46/46 81/173/36
f 81/173/36 74/46/46 150/85/81
f 92/95/91 95/115/110 151/4/4
f 149/133/85 92/95/91 81/36/36
f 92/95/91 151/4/4 81/36/36
f 87/122/117 148/121/116 80/123/118
f 151/4/4 147/6/6 81/36/36
f 150/85/81 153/87/83 152/130/125
f 77/86/82 150/85/81 19/55/55
f 95/115/110 103/153/144 155/152/143
f 89/84/80 85/111/106 99/82/78
f 89/84/80 4/15/15 111/105/101
f 111/105/101 103/153/144 95/115/110
f 103/153/144 4/15/15 114/14/14
f 103/153/144 111/105/101 4/15/15
f 154/20/20 3/151/142 114/14/14
f 154/20/20 114/14/14 1/16/16
f 94/124/119 3/151/142 154/20/20
f 94/124/119 95/115/110 155/152/143
